<svg xmlns="http://www.w3.org/2000/svg" viewBox="0 0 1200 900" role="img" aria-label="abstract responsive business header image">
<defs>
<linearGradient id="g" x1="0" x2="1" y1="0" y2="1"><stop stop-color="#102a31"/><stop offset=".45" stop-color="#246b63"/><stop offset="1" stop-color="#e9b44c"/></linearGradient>
<filter id="s" x="-20%" y="-20%" width="140%" height="140%"><feDropShadow dx="0" dy="24" stdDeviation="24" flood-color="#102a31" flood-opacity=".28"/></filter>
<pattern id="p" width="42" height="42" patternUnits="userSpaceOnUse"><path d="M42 0H0v42" fill="none" stroke="#fff" stroke-opacity=".12" stroke-width="1"/></pattern>
</defs>
<rect width="1200" height="900" fill="url(#g)"/>
<rect width="1200" height="900" fill="url(#p)"/>
<circle cx="1000" cy="130" r="210" fill="#fff" opacity=".10"/>
<circle cx="160" cy="800" r="290" fill="#c65d37" opacity=".28"/>
<g filter="url(#s)">
<path d="M220 190h520c46 0 84 38 84 84v354c0 46-38 84-84 84H220c-46 0-84-38-84-84V274c0-46 38-84 84-84Z" fill="#fffaf2" opacity=".94"/>
<rect x="200" y="270" width="370" height="40" rx="20" fill="#102a31" opacity=".92"/>
<rect x="200" y="354" width="520" height="24" rx="12" fill="#246b63" opacity=".48"/>
<rect x="200" y="410" width="430" height="24" rx="12" fill="#246b63" opacity=".30"/>
<rect x="200" y="500" width="180" height="72" rx="36" fill="#c65d37"/>
<circle cx="700" cy="530" r="78" fill="#e9b44c" opacity=".9"/>
</g>
<path d="M828 288c104 64 178 145 221 243 29 67-18 141-91 144-112 4-244-37-302-119-70-99 38-348 172-268Z" fill="#fff" opacity=".16"/>
<path d="M876 236l80 78-110 22 30-100Z" fill="#e9b44c" opacity=".95"/>
<path d="M949 647l86-18-37 80-49-62Z" fill="#fffaf2" opacity=".75"/>
</svg>