<svg xmlns="http://www.w3.org/2000/svg" width="640" height="480" viewBox="0 0 640 480">
    <defs><linearGradient id="fg" x1="0" y1="0" x2="1" y2="1"><stop offset="0" stop-color="#fef08a"/><stop offset="1" stop-color="#f7e4a8"/></linearGradient></defs>
    <rect width="640" height="480" rx="36" fill="url(#fg)"/>
    <circle cx="453" cy="201" r="74" fill="#eab308" opacity=".22"/><rect x="206" y="99" width="102" height="50" rx="18" fill="#0c0a09" opacity=".18"/><path d="M418 285 l80 -40 l110 80 l-95 60z" fill="#fef08a" opacity=".8"/><circle cx="233" cy="260" r="56" fill="#eab308" opacity=".22"/><rect x="48" y="309" width="149" height="99" rx="18" fill="#0c0a09" opacity=".18"/><path d="M506 130 l80 -40 l110 80 l-95 60z" fill="#fef08a" opacity=".8"/><circle cx="375" cy="194" r="34" fill="#eab308" opacity=".22"/><rect x="129" y="197" width="123" height="109" rx="18" fill="#0c0a09" opacity=".18"/><path d="M302 343 l80 -40 l110 80 l-95 60z" fill="#fef08a" opacity=".8"/>
    <path d="M80 380 C170 300 250 390 330 310 S480 210 560 300" fill="none" stroke="#1c1917" stroke-opacity=".35" stroke-width="18" stroke-linecap="round"/>
    </svg>