<svg xmlns="http://www.w3.org/2000/svg" width="1440" height="900" viewBox="0 0 1440 900">
    <defs>
      <linearGradient id="g" x1="0" y1="0" x2="1" y2="1"><stop offset="0" stop-color="#0c0a09"/><stop offset="0.55" stop-color="#302e2d"/><stop offset="1" stop-color="#eab308"/></linearGradient>
      <radialGradient id="r" cx="70%" cy="25%" r="70%"><stop offset="0" stop-color="#fef08a" stop-opacity=".95"/><stop offset="1" stop-color="#0c0a09" stop-opacity="0"/></radialGradient>
      <filter id="blur"><feGaussianBlur stdDeviation="22"/></filter>
      <pattern id="grid" width="60" height="60" patternUnits="userSpaceOnUse"><path d="M60 0H0V60" fill="none" stroke="#fef08a" stroke-opacity=".16"/></pattern>
    </defs>
    <rect width="1440" height="900" fill="url(#g)"/>
    <rect width="1440" height="900" fill="url(#grid)" opacity=".8"/>
    <circle cx="1100" cy="180" r="360" fill="url(#r)"/>
    <rect x="360.0" y="90.0" width="720" height="720" rx="12" fill="none" stroke="#fef08a" stroke-width="8" opacity="0.28" transform="rotate(0 720 450)"/><rect x="401.0" y="131.0" width="638" height="638" rx="22" fill="none" stroke="#fef08a" stroke-width="7" opacity="0.25" transform="rotate(7 720 450)"/><rect x="442.0" y="172.0" width="556" height="556" rx="32" fill="none" stroke="#fef08a" stroke-width="6" opacity="0.22" transform="rotate(14 720 450)"/><rect x="483.0" y="213.0" width="474" height="474" rx="42" fill="none" stroke="#fef08a" stroke-width="5" opacity="0.19" transform="rotate(21 720 450)"/><rect x="524.0" y="254.0" width="392" height="392" rx="52" fill="none" stroke="#fef08a" stroke-width="4" opacity="0.16" transform="rotate(28 720 450)"/><rect x="565.0" y="295.0" width="310" height="310" rx="62" fill="none" stroke="#fef08a" stroke-width="3" opacity="0.13" transform="rotate(35 720 450)"/><text x="80" y="820" font-family="Arial" font-size="32" fill="#fef08a" opacity=".55">curved hero</text></svg>