<svg xmlns="http://www.w3.org/2000/svg" width="1440" height="900" viewBox="0 0 1440 900">
    <defs>
      <linearGradient id="g" x1="0" y1="0" x2="1" y2="1"><stop offset="0" stop-color="#164e63"/><stop offset="0.55" stop-color="#38687a"/><stop offset="1" stop-color="#10b981"/></linearGradient>
      <radialGradient id="r" cx="70%" cy="25%" r="70%"><stop offset="0" stop-color="#a5f3fc" stop-opacity=".95"/><stop offset="1" stop-color="#164e63" stop-opacity="0"/></radialGradient>
      <filter id="blur"><feGaussianBlur stdDeviation="22"/></filter>
      <pattern id="grid" width="60" height="60" patternUnits="userSpaceOnUse"><path d="M60 0H0V60" fill="none" stroke="#a5f3fc" stroke-opacity=".16"/></pattern>
    </defs>
    <rect width="1440" height="900" fill="url(#g)"/>
    <rect width="1440" height="900" fill="url(#grid)" opacity=".8"/>
    <circle cx="1100" cy="180" r="360" fill="url(#r)"/>
    <rect x="457" y="237" width="209" height="78" rx="12" fill="#a5f3fc" opacity="0.06"/><rect x="114" y="510" width="131" height="148" rx="19" fill="#a5f3fc" opacity="0.10"/><rect x="735" y="479" width="196" height="81" rx="26" fill="#a5f3fc" opacity="0.13"/><rect x="1075" y="502" width="161" height="139" rx="33" fill="#a5f3fc" opacity="0.17"/><rect x="330" y="645" width="112" height="133" rx="40" fill="#a5f3fc" opacity="0.20"/><rect x="263" y="303" width="128" height="57" rx="12" fill="#a5f3fc" opacity="0.06"/><rect x="183" y="282" width="131" height="67" rx="19" fill="#a5f3fc" opacity="0.10"/><rect x="249" y="601" width="170" height="55" rx="26" fill="#a5f3fc" opacity="0.13"/><rect x="356" y="483" width="157" height="81" rx="33" fill="#a5f3fc" opacity="0.17"/><rect x="842" y="332" width="202" height="98" rx="40" fill="#a5f3fc" opacity="0.20"/><rect x="1166" y="557" width="146" height="89" rx="12" fill="#a5f3fc" opacity="0.06"/><rect x="581" y="191" width="176" height="122" rx="19" fill="#a5f3fc" opacity="0.10"/><text x="80" y="820" font-family="Arial" font-size="32" fill="#a5f3fc" opacity=".55">full bleed center</text></svg>